<svg width="35" height="33" viewBox="0 0 35 33" fill="none" xmlns="http://www.w3.org/2000/svg">
<g clip-path="url(#clip0)">
<path d="M18.8779 3.69837L22.275 9.92728C22.7065 10.7185 23.4708 11.2738 24.3566 11.4396L31.3304 12.7456C32.1084 12.8913 32.4168 13.8403 31.873 14.4155L26.9987 19.5711C26.3795 20.226 26.0876 21.1245 26.2036 22.0182L27.1165 29.0542C27.2184 29.8392 26.4111 30.4257 25.696 30.0863L19.2865 27.0437C18.4724 26.6573 17.5276 26.6573 16.7135 27.0437L10.304 30.0863C9.58888 30.4257 8.78159 29.8392 8.88345 29.0542L9.79644 22.0182C9.91241 21.1245 9.62047 20.226 9.00135 19.5711L4.12705 14.4155C3.58323 13.8403 3.89159 12.8913 4.66963 12.7456L11.6434 11.4396C12.5292 11.2738 13.2935 10.7185 13.725 9.92728L17.1221 3.69837C17.5011 3.00343 18.4989 3.00343 18.8779 3.69837Z" stroke="#71FFF6" stroke-width="2"/>
</g>
<defs>
<clipPath id="clip0">
<rect width="35" height="33" fill="white"/>
</clipPath>
</defs>
</svg>
