<svg width="34" height="32" viewBox="0 0 34 32" fill="none" xmlns="http://www.w3.org/2000/svg">
<path d="M11 18H22.9506L22.9022 23.9117L18.3298 23.1396C17.4537 22.9917 16.5591 22.9907 15.6826 23.1368L11 23.9172V18Z" stroke="#71FFF6" stroke-width="12"/>
<mask id="path-2-inside-1" fill="white">
<path d="M16.3243 1.61941L5 12L6.70711 13.7071C6.89464 13.8946 7.149 14 7.41421 14H17H26.5858C26.851 14 27.1054 13.8946 27.2929 13.7071L29 12L17.6757 1.61941C17.2934 1.26895 16.7066 1.26895 16.3243 1.61941Z"/>
</mask>
<path d="M5 12L-3.1087 3.15415L-12.3475 11.6231L-3.48528 20.4853L5 12ZM16.3243 1.61941L8.21558 -7.22644L8.21558 -7.22644L16.3243 1.61941ZM17.6757 1.61941L25.7844 -7.22644L25.7844 -7.22644L17.6757 1.61941ZM29 12L37.4853 20.4853L46.3475 11.6231L37.1087 3.15415L29 12ZM6.70711 13.7071L-1.77817 22.1924L-1.77817 22.1924L6.70711 13.7071ZM13.1087 20.8458L24.433 10.4653L8.21558 -7.22644L-3.1087 3.15415L13.1087 20.8458ZM9.56703 10.4653L20.8913 20.8458L37.1087 3.15415L25.7844 -7.22644L9.56703 10.4653ZM20.5147 3.51472L18.8076 5.22183L35.7782 22.1924L37.4853 20.4853L20.5147 3.51472ZM26.5858 2H17V26H26.5858V2ZM17 2H7.41421V26H17V2ZM15.1924 5.22182L13.4853 3.51472L-3.48528 20.4853L-1.77817 22.1924L15.1924 5.22182ZM7.41421 2C10.3316 2 13.1295 3.15894 15.1924 5.22182L-1.77817 22.1924C0.659787 24.6303 3.96638 26 7.41421 26V2ZM18.8076 5.22183C20.8705 3.15892 23.6684 2 26.5858 2V26C30.0336 26 33.3402 24.6304 35.7782 22.1924L18.8076 5.22183ZM24.433 10.4653C20.2274 14.3203 13.7726 14.3203 9.56703 10.4653L25.7844 -7.22644C20.8142 -11.7824 13.1858 -11.7824 8.21558 -7.22644L24.433 10.4653Z" fill="#71FFF6" mask="url(#path-2-inside-1)"/>
</svg>
