<svg width="29" height="29" viewBox="0 0 29 29" fill="none" xmlns="http://www.w3.org/2000/svg">
<path fill-rule="evenodd" clip-rule="evenodd" d="M14.5 29C6.49187 29 0 22.5081 0 14.5C0 6.49187 6.49187 0 14.5 0C22.5081 0 29 6.49187 29 14.5C29 22.5081 22.5081 29 14.5 29ZM4.83333 10.6333V17.937H6.98148V10.6333H4.83333ZM11.1377 10.6333L10.6559 14.0454L10.3578 12.1899C10.2709 11.5944 10.1878 11.0755 10.1085 10.6333H7.41111V17.937H9.23339L9.23995 13.1146L10.0069 17.937H11.3049L12.0325 13.0072L12.039 17.937H13.8556V10.6333H11.1377ZM17.0063 17.937C17.4594 17.937 17.7986 17.9123 18.0238 17.8627C18.2489 17.8132 18.4379 17.726 18.5912 17.6015C18.7442 17.4769 18.8514 17.3043 18.913 17.0834C18.9745 16.8629 19.0111 16.425 19.0111 15.7704V13.2054C19.0111 12.5146 18.9842 12.0514 18.9422 11.8157C18.9002 11.5801 18.7952 11.3661 18.627 11.1739C18.459 10.9817 18.2135 10.8436 17.8908 10.7596C17.5682 10.6755 17.0415 10.6333 16.126 10.6333H14.7148V17.937H17.0063ZM19.8704 17.937H21.5889L21.6958 17.3833C21.8502 17.568 22.0204 17.7065 22.2067 17.7988C22.3929 17.891 22.6709 17.937 22.8858 17.937C23.1856 17.937 23.4444 17.8593 23.6625 17.704C23.8804 17.5486 24.019 17.3649 24.0781 17.1532C24.1371 16.9414 24.1667 16.6196 24.1667 16.1873V14.1647C24.1667 13.7294 24.1567 13.4453 24.1371 13.3121C24.1173 13.1789 24.0592 13.0427 23.9625 12.9036C23.8656 12.7646 23.7249 12.6565 23.5402 12.5795C23.3556 12.5023 23.1379 12.4639 22.8868 12.4639C22.6689 12.4639 22.3895 12.5067 22.2034 12.5916C22.0172 12.6766 21.8485 12.8056 21.6972 12.9784V10.6333H19.8704V17.937Z" fill="#FFCC00"/>
</svg>
