<svg width="29" height="29" viewBox="0 0 29 29" fill="none" xmlns="http://www.w3.org/2000/svg">
<path fill-rule="evenodd" clip-rule="evenodd" d="M14.5 29C6.49187 29 0 22.5081 0 14.5C0 6.49187 6.49187 0 14.5 0C22.5081 0 29 6.49187 29 14.5C29 22.5081 22.5081 29 14.5 29ZM14.5 16.4333C15.5678 16.4333 16.4333 15.5678 16.4333 14.5C16.4333 13.4323 15.5678 12.5667 14.5 12.5667C13.4323 12.5667 12.5667 13.4323 12.5667 14.5C12.5667 15.5678 13.4323 16.4333 14.5 16.4333ZM8.7 12.5667C10.8355 12.5667 12.5667 10.8355 12.5667 8.7C12.5667 6.5645 10.8355 4.83333 8.7 4.83333C6.5645 4.83333 4.83333 6.5645 4.83333 8.7C4.83333 10.8355 6.5645 12.5667 8.7 12.5667ZM8.7 24.1667C10.8355 24.1667 12.5667 22.4355 12.5667 20.3C12.5667 18.1645 10.8355 16.4333 8.7 16.4333C6.5645 16.4333 4.83333 18.1645 4.83333 20.3C4.83333 22.4355 6.5645 24.1667 8.7 24.1667ZM20.3 12.5667C22.4355 12.5667 24.1667 10.8355 24.1667 8.7C24.1667 6.5645 22.4355 4.83333 20.3 4.83333C18.1645 4.83333 16.4333 6.5645 16.4333 8.7C16.4333 10.8355 18.1645 12.5667 20.3 12.5667ZM20.3 24.1667C22.4355 24.1667 24.1667 22.4355 24.1667 20.3C24.1667 18.1645 22.4355 16.4333 20.3 16.4333C18.1645 16.4333 16.4333 18.1645 16.4333 20.3C16.4333 22.4355 18.1645 24.1667 20.3 24.1667Z" fill="#FF791A"/>
</svg>
