<svg width="29" height="31" viewBox="0 0 29 31" fill="none" xmlns="http://www.w3.org/2000/svg">
<path fill-rule="evenodd" clip-rule="evenodd" d="M19.8519 8.38769C19.8519 9.63972 19.3008 11.0244 18.3408 12.0992C17.3875 13.1664 16.1751 13.7754 14.9567 13.7754C13.7384 13.7754 12.5259 13.1664 11.5727 12.0992C10.6126 11.0244 10.0615 9.63972 10.0615 8.38769C10.0615 7.13565 10.6126 5.75096 11.5727 4.67616C12.5259 3.60899 13.7384 3 14.9567 3C16.1751 3 17.3875 3.60899 18.3408 4.67616C19.3008 5.75096 19.8519 7.13565 19.8519 8.38769ZM21.8519 8.38769C21.8519 11.9878 18.7648 15.7754 14.9567 15.7754C11.1486 15.7754 8.06155 11.9878 8.06155 8.38769C8.06155 4.78759 11.1486 1 14.9567 1C18.7648 1 21.8519 4.78759 21.8519 8.38769ZM25.9086 28.3311H4.00484C3.91395 25.4176 5.10191 23.2518 6.94294 21.7533C9.00627 20.0738 11.9487 19.1933 14.9567 19.1933C17.9647 19.1933 20.9072 20.0738 22.9705 21.7533C24.8115 23.2518 25.9995 25.4176 25.9086 28.3311ZM27.8306 29.4446C28.2946 25.3845 26.7711 22.2681 24.233 20.2022C21.7352 18.169 18.3132 17.1933 14.9567 17.1933C11.6003 17.1933 8.17826 18.169 5.6804 20.2022C3.14231 22.2681 1.61885 25.3845 2.08287 29.4446L2.18418 30.3311H3.0764H26.837H27.7293L27.8306 29.4446Z" fill="#71FFF6"/>
</svg>
