<svg width="31" height="33" viewBox="0 0 31 33" fill="none" xmlns="http://www.w3.org/2000/svg">
<path fill-rule="evenodd" clip-rule="evenodd" d="M14.6657 24.3313C20.0038 24.3313 24.3313 20.0038 24.3313 14.6657C24.3313 9.32746 20.0038 5 14.6657 5C9.32746 5 5 9.32746 5 14.6657C5 20.0038 9.32746 24.3313 14.6657 24.3313ZM14.6657 26.3313C16.9077 26.3313 19.0021 25.6988 20.78 24.6025L25.6394 29.4618L24.9296 30.0139C24.6181 30.2561 24.6969 30.7469 25.0686 30.8795L28.3322 32.0434C28.6585 32.1598 29.0014 31.917 29.0002 31.5706L28.9864 27.8791C28.9848 27.4639 28.5072 27.2313 28.1794 27.4862L27.5535 27.9731L22.7021 23.1217C24.9376 20.9964 26.3313 17.9938 26.3313 14.6657C26.3313 8.22289 21.1084 3 14.6657 3C8.22289 3 3 8.22289 3 14.6657C3 21.1084 8.22289 26.3313 14.6657 26.3313Z" fill="#71FFF6"/>
</svg>
