<svg width="30" height="32" viewBox="0 0 30 32" fill="none" xmlns="http://www.w3.org/2000/svg">
<path fill-rule="evenodd" clip-rule="evenodd" d="M25.3313 12.6657C25.3313 15.9938 23.9376 18.9964 21.7021 21.1217L26.5535 25.9731L27.1794 25.4862C27.5072 25.2313 27.9848 25.4639 27.9864 25.8791L28.0002 29.5706C28.0014 29.917 27.6585 30.1598 27.3322 30.0434L24.0686 28.8795C23.6969 28.7469 23.6181 28.2561 23.9296 28.0139L24.6394 27.4618L19.78 22.6025C18.0021 23.6988 15.9077 24.3313 13.6657 24.3313C7.22289 24.3313 2 19.1084 2 12.6657C2 6.22289 7.22289 1 13.6657 1C20.1084 1 25.3313 6.22289 25.3313 12.6657Z" fill="#71FFF6"/>
</svg>
