<svg width="18" height="17" viewBox="0 0 18 17" fill="none" xmlns="http://www.w3.org/2000/svg">
<g clip-path="url(#clip0)">
<path d="M9.43896 0.849183L11.449 4.53486C11.6648 4.93045 12.0469 5.2081 12.4898 5.29104L16.6162 6.06378C17.0053 6.13663 17.1594 6.61114 16.8875 6.89874L14.0034 9.94935C13.6938 10.2768 13.5479 10.726 13.6058 11.1729L14.1461 15.3361C14.197 15.7286 13.7933 16.0219 13.4358 15.8522L9.64325 14.0519C9.23618 13.8586 8.76382 13.8586 8.35676 14.0519L4.5642 15.8522C4.20665 16.0219 3.80301 15.7286 3.85394 15.3361L4.39416 11.1729C4.45214 10.726 4.30617 10.2768 3.99661 9.94935L1.11247 6.89874C0.84056 6.61114 0.994738 6.13663 1.38376 6.06378L5.51019 5.29104C5.95309 5.2081 6.33524 4.93045 6.55098 4.53486L8.56104 0.849184C8.75054 0.501713 9.24946 0.501714 9.43896 0.849183Z" stroke="#71FFF6"/>
</g>
<defs>
<clipPath id="clip0">
<rect width="18" height="17" fill="white"/>
</clipPath>
</defs>
</svg>
